<?xml version="1.0" standalone="no"?>
<!DOCTYPE svg PUBLIC "-//W3C//DTD SVG 20010904//EN"
 "http://www.w3.org/TR/2001/REC-SVG-20010904/DTD/svg10.dtd">
<svg version="1.0" xmlns="http://www.w3.org/2000/svg"
 width="300.000000pt" height="300.000000pt" viewBox="0 0 300.000000 300.000000"
 preserveAspectRatio="xMidYMid meet">
<metadata>
Created by potrace 1.10, written by Peter Selinger 2001-2011
</metadata>
<g transform="translate(0.000000,300.000000) scale(0.100000,-0.100000)"
fill="#000000" stroke="none">
<path d="M1405 2953 c-69 -36 -124 -114 -125 -175 l0 -28 -119 0 c-168 0 -165
3 -169 -179 l-4 -141 511 0 511 0 0 138 c0 132 -1 140 -23 160 -21 20 -34 22
-138 22 l-115 0 -13 50 c-28 110 -106 170 -222 170 -38 -1 -76 -7 -94 -17z
m179 -28 c52 -25 94 -75 107 -130 7 -27 17 -56 22 -62 7 -9 43 -13 119 -13 60
0 118 -5 129 -10 17 -10 19 -22 19 -125 l0 -115 -475 0 -475 0 0 119 c0 99 3
120 16 125 9 3 65 6 124 6 101 0 110 2 124 22 9 12 16 33 16 46 0 47 43 103
105 135 39 21 128 21 169 2z"/>
<path d="M1431 2795 c-44 -50 -43 -95 3 -141 39 -39 87 -45 122 -16 81 65 45
192 -54 192 -33 0 -45 -6 -71 -35z m128 -21 c28 -36 26 -66 -5 -98 -32 -31
-62 -33 -98 -5 -33 26 -36 79 -6 109 30 30 83 27 109 -6z"/>
<path d="M604 2584 c-17 -8 -36 -26 -43 -40 -8 -18 -11 -301 -11 -1025 l0
-1001 34 -34 34 -34 274 0 c151 0 553 3 893 7 l619 6 23 23 23 23 0 1011 c0
705 -3 1017 -11 1032 -20 38 -68 48 -229 48 l-150 0 0 -105 0 -105 -555 0
-555 0 0 105 0 105 -157 0 c-122 0 -165 -4 -189 -16z m316 -111 c0 -66 4 -91
17 -105 15 -17 46 -18 564 -18 l548 0 21 22 c17 18 20 35 20 105 l0 83 149 0
c123 0 152 -3 165 -16 14 -14 16 -120 16 -1019 0 -899 -2 -1005 -16 -1019 -14
-14 -109 -16 -901 -16 -811 0 -888 1 -905 17 -17 15 -18 60 -18 1016 0 917 1
1002 17 1019 14 16 34 18 170 18 l153 0 0 -87z"/>
<path d="M826 2318 c-14 -20 -16 -112 -16 -793 0 -681 2 -773 16 -793 l15 -22
659 0 c564 0 661 2 673 15 22 21 31 385 25 1032 -5 506 -6 544 -23 563 -18 20
-31 20 -676 20 l-658 0 -15 -22z m1337 -788 l-3 -780 -660 -3 -660 -2 0 783 0
782 663 0 662 0 -2 -780z"/>
<path d="M890 1903 l0 -353 220 0 c201 0 221 2 226 18 14 47 40 84 77 109 33
23 51 28 102 28 81 0 134 -33 167 -105 l23 -50 207 0 208 0 0 353 0 352 -155
0 -155 0 0 -132 0 -133 -62 -1 -63 0 -30 -46 c-17 -27 -46 -55 -68 -66 -47
-24 -121 -26 -163 -4 -37 19 -94 82 -94 102 0 12 -15 15 -67 15 l-68 0 0 131
0 130 -153 2 -152 2 0 -352z m278 197 c3 -135 12 -150 89 -150 41 0 49 -4 96
-54 38 -40 64 -57 97 -66 82 -22 164 8 215 78 27 37 34 41 76 41 31 1 55 8 73
22 25 20 26 23 26 135 l0 114 120 0 120 0 0 -142 c1 -287 2 -454 1 -475 -1
-23 -1 -23 -180 -23 l-179 0 -12 30 c-16 39 -70 93 -113 113 -96 46 -235 -12
-277 -114 l-12 -29 -194 0 -194 0 0 320 0 321 123 -3 122 -3 3 -115z"/>
<path d="M1909 1899 c-7 -5 -28 -6 -45 -3 -26 5 -35 1 -52 -21 -17 -21 -19
-31 -11 -46 7 -13 6 -25 -1 -40 -9 -16 -8 -26 5 -45 21 -32 43 -40 67 -25 15
9 23 10 34 0 33 -28 96 43 66 73 -8 8 -8 17 -1 31 20 36 -29 97 -62 76z m-37
-39 c12 -19 13 -19 34 0 20 20 21 20 37 2 16 -18 16 -20 -3 -37 -19 -17 -19
-18 3 -36 21 -17 21 -19 5 -35 -17 -17 -18 -17 -38 1 -19 18 -21 18 -40 0 -19
-17 -22 -18 -37 -2 -16 15 -15 18 2 37 17 19 17 22 3 37 -13 12 -14 20 -5 34
15 24 24 24 39 -1z"/>
<path d="M1050 1795 c-21 -23 -23 -29 -13 -55 7 -18 7 -32 2 -36 -16 -10 -10
-34 16 -60 20 -20 28 -23 45 -14 14 8 26 7 42 -1 19 -10 25 -8 50 20 23 26 26
35 18 51 -7 14 -8 26 0 39 14 26 14 27 -15 56 -29 28 -36 30 -53 13 -10 -10
-17 -10 -32 0 -27 17 -33 15 -60 -13z m52 -22 c17 -15 19 -15 38 2 19 17 22
18 37 2 16 -15 15 -18 -2 -37 -17 -19 -17 -21 0 -40 16 -18 16 -20 1 -36 -16
-15 -18 -15 -36 1 -19 17 -21 17 -38 1 -18 -15 -20 -15 -35 2 -16 18 -16 20 3
37 19 17 19 18 -2 35 -19 15 -20 19 -7 33 18 20 19 20 41 0z"/>
<path d="M1250 2145 l0 -110 255 0 255 0 0 110 0 110 -30 0 -30 0 0 -72 0 -73
-195 0 -195 0 0 74 0 73 -30 -1 -30 -1 0 -110z m480 -59 c0 -19 -4 -22 -25
-18 l-24 4 22 19 c28 23 27 23 27 -5z m-406 -17 c-7 -12 -44 2 -44 16 0 10 5
11 24 2 13 -7 22 -15 20 -18z"/>
<path d="M1354 2251 c-2 -2 -4 -24 -4 -48 l0 -43 150 0 150 0 0 48 0 47 -146
0 c-80 0 -148 -2 -150 -4z m266 -46 c0 -12 -19 -15 -115 -15 -96 0 -115 3
-115 15 0 12 19 15 115 15 96 0 115 -3 115 -15z"/>
<path d="M1380 1979 c0 -22 61 -67 98 -74 57 -9 118 19 143 67 9 17 1 18 -116
18 -84 0 -125 -4 -125 -11z m167 -35 c-7 -8 -87 -7 -95 0 -3 3 19 6 48 6 29 0
51 -3 47 -6z"/>
<path d="M1443 1640 c-27 -16 -63 -65 -63 -85 0 -3 61 -5 135 -5 74 0 135 3
135 8 0 19 -42 73 -69 87 -41 21 -99 19 -138 -5z m122 -24 c59 -25 42 -36 -56
-36 -95 0 -106 9 -45 36 40 17 59 17 101 0z"/>
<path d="M890 1145 l0 -355 156 0 155 0 -3 135 -3 135 61 0 c57 0 62 2 68 24
8 34 78 93 125 106 72 19 158 -19 198 -87 l25 -43 69 0 69 0 0 -135 0 -135
155 0 155 0 0 355 0 355 -208 0 -207 0 -23 -50 c-33 -72 -86 -105 -167 -105
-81 0 -134 33 -167 105 l-23 50 -217 0 -218 0 0 -355z m442 275 c87 -156 315
-142 378 24 l10 26 180 0 c99 0 180 -3 181 -7 0 -11 1 -547 0 -600 l-1 -43
-120 0 -120 0 0 117 c0 144 -6 153 -91 153 -57 0 -60 1 -84 38 -59 89 -176
123 -265 77 -16 -8 -48 -37 -72 -65 -40 -46 -46 -50 -88 -50 -26 0 -51 -5 -58
-12 -8 -8 -12 -49 -12 -119 0 -59 -3 -114 -6 -123 -5 -13 -26 -16 -125 -16
l-119 0 0 325 0 325 193 0 192 0 27 -50z"/>
<path d="M1811 1414 c-16 -21 -18 -30 -9 -49 8 -19 8 -28 -2 -40 -11 -13 -10
-20 7 -43 18 -24 27 -27 77 -28 72 -1 90 17 92 92 2 74 -20 104 -65 87 -18 -6
-33 -7 -37 -2 -10 17 -43 9 -63 -17z m94 -14 c17 19 19 19 37 3 18 -16 18 -17
-2 -38 -20 -22 -20 -22 -1 -39 17 -16 18 -20 6 -32 -18 -19 -32 -18 -44 3 -9
17 -11 16 -30 -2 -20 -17 -23 -18 -38 -2 -16 16 -16 18 -1 33 15 15 15 19 1
40 -13 20 -13 27 -3 39 12 14 15 13 35 -5 l22 -20 18 20z"/>
<path d="M1010 1285 c-19 -21 -22 -29 -13 -48 7 -15 8 -29 2 -38 -13 -21 -11
-34 11 -59 15 -18 26 -21 51 -16 17 3 39 2 48 -4 14 -7 24 -2 47 21 25 26 27
32 16 50 -9 14 -10 25 -2 40 21 38 -41 97 -73 70 -8 -6 -18 -6 -27 -1 -23 15
-35 12 -60 -15z m93 -18 c16 16 18 16 34 0 16 -16 16 -18 0 -34 -16 -16 -16
-18 3 -38 20 -21 20 -22 2 -38 -18 -16 -20 -16 -37 3 l-18 20 -22 -20 c-21
-20 -22 -20 -38 -2 -16 18 -16 20 3 37 18 17 19 20 4 36 -13 14 -13 20 -2 38
12 20 13 20 33 1 20 -19 22 -19 38 -3z"/>
<path d="M1380 1495 c0 -4 7 -19 15 -36 47 -90 193 -90 240 0 8 17 15 32 15
36 0 3 -61 5 -135 5 -74 0 -135 -2 -135 -5z m220 -35 c0 -14 -55 -40 -85 -40
-30 0 -85 26 -85 40 0 6 36 10 85 10 49 0 85 -4 85 -10z"/>
<path d="M1450 1139 c-34 -10 -80 -50 -80 -70 0 -5 53 -9 125 -9 l125 0 -15
24 c-35 52 -91 72 -155 55z m90 -39 c0 -5 -23 -10 -51 -10 -31 0 -48 4 -44 10
3 6 26 10 51 10 24 0 44 -4 44 -10z"/>
<path d="M1250 900 l0 -110 30 0 30 0 0 75 0 75 195 0 195 0 0 -75 0 -75 30 0
30 0 0 110 0 110 -255 0 -255 0 0 -110z m479 43 c-1 -22 -3 -30 -6 -18 -11 44
-17 45 -216 45 -163 0 -193 -2 -209 -17 -17 -15 -18 -15 -18 5 0 22 1 22 225
22 l225 0 -1 -37z"/>
<path d="M1350 840 l0 -50 150 0 150 0 0 50 0 50 -150 0 -150 0 0 -50z m270 0
c0 -19 -7 -20 -115 -20 -108 0 -115 1 -115 20 0 19 7 20 115 20 108 0 115 -1
115 -20z"/>
</g>
</svg>
